<svg xmlns="http://www.w3.org/2000/svg" width="518.313" height="458.079" viewBox="0 0 518.313 458.079">
  <g id="Group_4043" data-name="Group 4043" transform="translate(-281.542 -16.914)">
    <path id="Path_5912" data-name="Path 5912" d="M350.259,166.236c.336-.6.673-1.2,1.131-2.022l-2.538.17.983-1.987c1.136-.786,2.809-.031,3.494-1.529-.183-1.013-1.262-.472-1.647-1a15.243,15.243,0,0,1-.926-1.752,5.92,5.92,0,0,1,2.044-.887,5.408,5.408,0,0,0,2.752-1.092c1.69-1.022,3.258-2.258,5.023-3.507q-.406-.917-.8-1.813c.725-.349,1.533-.734,2.333-1.123.271-.135.559-.446.79-.406,2.18.363,2.944-1.2,3.791-2.686a10.832,10.832,0,0,1,.668-.97c2.7-1.428,5.377-.6,7.923-1a3.255,3.255,0,0,1,1.393.384,6.091,6.091,0,0,0,5.687-.738,12.7,12.7,0,0,1,6.076-2.35,4.632,4.632,0,0,0,3.394-1.686l1.542.319a7.86,7.86,0,0,1,5.071-3.831c1.166-.271,2.306-.69,3.477-.93a27.539,27.539,0,0,0,6.9-2.9c3.2-1.629,6.368-3.311,9.653-4.791a61.305,61.305,0,0,0,5.9-3.5,23.012,23.012,0,0,1,7.425-3.027l-.079-.087c0,1.249-1.1,1.69-1.874,2.162-2.385,1.454-4.892,2.712-7.347,4.053a30.206,30.206,0,0,0-3.254,2.11,29.929,29.929,0,0,1-5.56,2.918,58.9,58.9,0,0,0-8.8,5.193,3.53,3.53,0,0,0-.59.638.789.789,0,0,0,.943.891c1.171-.114,2.42.179,3.468-.62a.47.47,0,0,1,.271-.127c2.481.079,4.189-1.629,6.228-2.608a51.354,51.354,0,0,0,8.814-5.08,5.09,5.09,0,0,1,1.354-.646c3.105-1.083,5.451-3.293,7.914-5.324,1-.817,1.87-1.791,2.9-2.555a5.8,5.8,0,0,0,2.341-4.023l-.061.07a8.186,8.186,0,0,0,1.42.061,1.069,1.069,0,0,0,1.013-1.149c-.009-.834-.629-.786-1.205-.773l-.022.022a6.825,6.825,0,0,1,1.048-1.053c2.354-1.489,4.49-3.346,7.181-4.263,1.992-.677,3.507-2.319,5.621-2.769.249-.052.454-.384.647-.616a5.717,5.717,0,0,1,4.783-2.232c.865-2.463,3.368-2.083,5.049-3.079.607.494.205.751-.057,1.031-.065.074-.179.114-.227.2-1.446,2.669-3.931,4.066-6.5,5.381a9.585,9.585,0,0,0-1.354,1.162,7.956,7.956,0,0,1-2.219,1.472,7.7,7.7,0,0,0-2.289,1.848,2.856,2.856,0,0,0-1.24,2.428,2.813,2.813,0,0,0,.97.367,6.707,6.707,0,0,0,4.612-1.909c2.223-2.053,4.922-3.416,7.277-5.276a27.257,27.257,0,0,1,5.15-2.992c.048.179.044.463.153.515a1.95,1.95,0,0,0,.738.1c.009,0,.065-.2.031-.231a1.142,1.142,0,0,0-.432-.275,2.488,2.488,0,0,0-.572-.017c.349-.336.651-.882,1.057-.978a6.382,6.382,0,0,0,3.879-3.092A10.175,10.175,0,0,1,475.8,99.6a23.529,23.529,0,0,0,2.468-2.105c.183-.17.179-.542.328-1.048a3.592,3.592,0,0,0-1.184.017c-1.655.681-3.306,1.376-4.914,2.162a9.229,9.229,0,0,0-1.634,1.284,13.581,13.581,0,0,1-4.66,2.568c-.135.039-.332-.118-.537-.2.358-1.406,2.07-1.45,2.647-2.616l-.087.044c.363-.284,1.083-.673,1.035-.834a1.564,1.564,0,0,1,1.2-2.092c2.035-.494,3.477-1.834,5.075-2.992.559-.406,1.219-.677,1.813-1.044a2.952,2.952,0,0,0,.9-.729,10.019,10.019,0,0,1,5.211-3.817,10.167,10.167,0,0,0,2.7-1.8c.559-.437.9-.14,1.3.153l-.175.074.122-.131,1.778-.577-.066-.07-2.14,2.332c.668,1.389,1.1,1.7,1.913,1.254a35.326,35.326,0,0,0,3.3-2.066c.8-.572,1.419-1.433,2.529-1.507a.831.831,0,0,0,.511-.28,13.215,13.215,0,0,1,4.46-3.477c.738-1.686,2.315-1.677,3.756-1.756.362-1.114-.476-.957-.97-1.136l.066.066c1.149-.769,2.28-1.568,3.455-2.3a2.889,2.889,0,0,1,2.511-.581,1.008,1.008,0,0,0,1.3-.384c.568-.8,1.564-1.166,2.018-2.131a1.26,1.26,0,0,1,1.59-.494l-.052-.074a10.747,10.747,0,0,0-.7.97c-.668,1.179-.275,2.075.839,2.935,1.5-1.157,3.031-2.206,4.4-3.442,1.747-1.572,3.625-2.367,5.971-1.686a1.658,1.658,0,0,0,2.027-.869c.166-.288.061-.729.074-1.1l-1.044-.092c0-.157-.066-.393.013-.459.459-.376.943-.716,1.433-1.053.734-.507,1.511-.943,2.2-1.5a10.386,10.386,0,0,1,3.512-2.079,25.772,25.772,0,0,0,3.477-1.393c1.1-.524,1.808-1.808,2.8-2.625a9.836,9.836,0,0,1,2.551-1.511,9.88,9.88,0,0,0,4.114-2.87c1.59,1.62,2.311,1.564,3.49-.175a6.636,6.636,0,0,1,.542-.62l-.057-.061.249.446.437-.441-.061.052c.852-.677,1.686-1.385,2.56-2.031,1.188-.869,2.638-.664,3.983-.843.275-.035.69.376.922.673.485.638.887,1.337,1.323,2.009-.3.926-.646,1.843-.869,2.787a.928.928,0,0,0,1.118,1.044,2.227,2.227,0,0,0,.852-.249,23.244,23.244,0,0,0,3.555-2.717c1.079-1.144,2.145-1.743,3.638-1.171,1.677-1.258,3.071-2.778,5.119-3.237,1.9-1.76,4.5-2.643,6.119-4.778l-.074-.026c.188.424.271.983.59,1.24a6.137,6.137,0,0,0,1.564.681c1.306-.572,2.547-1.118,3.975-1.747a9.153,9.153,0,0,0,.729,1.149,1.356,1.356,0,0,0,1.83.419c.773-.393,1.376-1.184,2.393-1l-.057-.1a9.2,9.2,0,0,1-5.434,3.525,19.98,19.98,0,0,0-5.63,2.8c-.568.367-1.3.917-1.4,1.489-.284,1.533-1.337,2.053-2.538,2.673a6.731,6.731,0,0,0-3.914,4.643c-.166.826.258,1.332,1.14,1.2,1.166-.175,2.328-.367,3.647-.572.4-.546.9-1.175,1.341-1.834,1.481-2.171,3.7-2.922,6.15-3.127.607-.048,1.214.118,1.612-.45a10.431,10.431,0,0,0,.843-1.533,3.5,3.5,0,0,0,.179-.769c.288-.031.529-.135.677-.061,1.939.952,3.245-.035,4.411-1.424.319-.384.546-.839.83-1.249.227-.328.411-.808.725-.935,2.42-.952,2.852-3.791,4.879-5.115a1.055,1.055,0,0,0,.013-1.026,1.225,1.225,0,0,0-1.061-.153,4.448,4.448,0,0,0-2.276,1.874,12.743,12.743,0,0,1-1.223,1.385c-.874-.743-1.62-1.371-2.367-2l.1.048c1.83-1.179,3.865-2.057,5.359-3.748A6.515,6.515,0,0,1,596.5,42.6c1.28-.777,2.555-1.568,3.826-2.359.8-.5,1.389-1.494,2.621-1.013.205.079.756-.323.913-.625.515-.965.922-1.987,1.38-3.009.607-.223,1.467-.275,1.826-.729a15.447,15.447,0,0,0,1.489-2.808c.751-.214,1.568-.446,2.376-.673a10.416,10.416,0,0,1,.179,2.581c-.345,1.913.581,3.263,1.677,4.6.939,1.144,1.878,2.293,2.782,3.4a2.074,2.074,0,0,0,2.11-.939c.935-1.293,1.939-2.529,2.891-3.761,1.35.17,1.162,1.625,2.228,2.249h3.189c.642,1.638,1.306,3.14-.044,4.757-.262.31-.17.917-.245,1.415,1.245.673,2.468.306,3.634.411l-.052-.044c.428.424,1,.769,1.262,1.28,1.044,2.053,2.878,2.149,4.63,1.634a13.186,13.186,0,0,1,4.438-.5,3.372,3.372,0,0,0,2.721-1.013,12.045,12.045,0,0,0,3.136-3.962c.589-1.5,1.974-2.463,3.114-3.424,2.407-.048,3.141,2.053,4.708,3.215-.791.638-1.555,1.254-2.328,1.883-.031.86.236,1.773-.686,2.45-.559.411-.432,1.074-.1,1.634a1.55,1.55,0,0,0,1.756.86c.686-.144,1.376-.28,2.066-.411a4.124,4.124,0,0,0,3.3-2.747,5.3,5.3,0,0,1,1.271-1.931,11.8,11.8,0,0,0,1.577-2.948c.865-.266,1.817-.563,2.918-.9a3.665,3.665,0,0,1,3.079-3.433c.677-.162,1.323-.45,1.987-.673,2.175-.734,2.625-1.319,2.992-3.865l-2.931-2.044c.288-1.271.55-2.415.812-3.573a6.25,6.25,0,0,0-2.8-1.717,28.478,28.478,0,0,0-3.088-1.192c-1.14-.314-2.332-.446-3.721-.694a13.248,13.248,0,0,0-1.131-1.009c-.467-.349-1-.62-1.52-.935-.083-.874-.157-1.66-.232-2.45l-.044.079c1.716-.266,3.389-.384,4.8.943a1.069,1.069,0,0,0,.834.275c1.415-.4,2.2.358,3.049,1.328a3.33,3.33,0,0,0,1.887.76c1.284.205,2.594.275,3.9.384a2.724,2.724,0,0,0,1.162-.031c1.284-.52,2.59-.127,3.883-.2a2.631,2.631,0,0,1,2.083,1.092,5.94,5.94,0,0,0-.236,2.232c.162.555.939.93,1.446,1.385.127.537-.35.638-.633.882-1.092.939-1.262,1.376-.441,2.5a3.343,3.343,0,0,1,.673,2.516c-.179,1.577-.341,3.162-.524,4.861.59.62,1.559,1.053,1.786,2.18a1.619,1.619,0,0,0,.978,1.044,4.077,4.077,0,0,1,2.7,2.223,1,1,0,0,0,1.21.6c.708-.179.869-.817.843-1.424a12.679,12.679,0,0,0-.323-1.778c-.087-.48-.166-.961-.266-1.551,2.022-.8,3.621-.114,5.1,1,.778.59,1.463,1.3,2.28,2.035.161,1.481.161,1.481,1.756,2.878,2.581-1.337,5.228-2.708,8.019-4.158.472.127,1.144.336,1.826.485,1.625.354,2,.166,2.843-1.385.188-.345.363-.7.585-1.123,1.459-.183,3.123.039,3.748-2.354.4.948.629,1.223.581,1.437-.428,1.935-.559,3.957-1.6,5.726-.253.428-.384.93-.616,1.371-1.07,2.031-.681,4.128-.144,6.163a9.608,9.608,0,0,0,1.494,2.363,22.677,22.677,0,0,1-2.516,5.643,19.436,19.436,0,0,0-2.131,4.56,12.123,12.123,0,0,1-2.171,4.569,4.569,4.569,0,0,0-1.013,2.136c-.227,1.817.777,3.455,1.009,5.237a3.56,3.56,0,0,0,2.053,2.472c.166.087.271.288.4.432.651,2.1-.2,4.106-.411,6.137a2.8,2.8,0,0,1-1.808,2.232,29.314,29.314,0,0,0-2.909,1.581,6.4,6.4,0,0,0-3.56,5.551,8.942,8.942,0,0,1-.153.887c-.013.092.048.192.131.485.725.55,1.581,1.2,2.555,1.935-.847,1.136-1.612,2.166-2.306,3.1-.052,1.472,1.227,1.481,1.957,2.088l-.341.821.061-.249.018.175c-.454.642-1.136.5-1.773.511l.048.031h-.712l.074-.07,0,.716-.039-.048c-.271,1.114-1.651,1.066-2.11,2.049.052.629.044,1.481.83,1.647a3.836,3.836,0,0,0,3.389-.642,2.577,2.577,0,0,0,.7-.948,37.062,37.062,0,0,1,3.071-4.971,11.009,11.009,0,0,1,3.359-3.263,2.2,2.2,0,0,1,2.782.109l.136.074-.214-.052.725-.4c.166.183.415.336.393.441-.384,2.014.721,3.608,1.454,5.307l.074-.035-.7.712.035-.048c-1.057.533-.275,1.371-.341,2.088-.764.4-1.738.55-2.018,1.572l-.533.323c.079.017.21.07.227.044a3.337,3.337,0,0,0,.227-.45l1.1.55c-.432.537-.773.983-1.14,1.4a2.485,2.485,0,0,0-.568,1.813,3.045,3.045,0,0,1-1.14,2.682c-.489.332-.694,1.083-.943,1.5.6.926,1.07,1.668,1.542,2.407-.175.066-.638-.074-.266.376l.214-.432a5.86,5.86,0,0,1,.791.288c.62.341,1.044.266,1.271-.467.044-.135.271-.214.415-.319l-.074-.061a9.311,9.311,0,0,1-.55,1.677,9.179,9.179,0,0,1-1.066,1.363c.97,1.773,1.044,1.821.109,3.228-.594.891-.585,2.04-1.468,2.817-.437.384.306,1.62.939,1.489a3.4,3.4,0,0,1,2.83.563V131.6a2.72,2.72,0,0,1-.869-.013c-.983-.358-1.935-.712-2.673.424l.528,1.118q-1.487.616-2.865,1.184a3.771,3.771,0,0,0,1.52,2.389l-.057-.052a18.242,18.242,0,0,0,.153,1.961c.087.489-.306.419-.5.568-1.45,1.079-1.669,2.682-1.786,4.3-.057.756,1.162,1.5,1.778,1,1.49-1.184,3.306-1.354,5.04-1.869,1.066-.633,1.009-2.533,2.865-2.49a3.868,3.868,0,0,1-2.2,4.01c.611,1.581,2.957.437,3.258,2.3a3.706,3.706,0,0,1-3.643-.323.91.91,0,0,0-1.511.411c.428.507.847,1.044,1.31,1.537.271.284.629.721.93.712,2.306-.092,3.625,2.014,5.669,2.485.515.122.695,1.053.279,1.21a2.378,2.378,0,0,0-1.542,2,7.839,7.839,0,0,1-1.053,1.9,15.787,15.787,0,0,0,7.395,2.538,2.369,2.369,0,0,0,1.419-.3,20.048,20.048,0,0,1,4.446-2.372,4.706,4.706,0,0,0,1.406-1.04c1.363-1.341,2.547-1.389,3.774-.1.612.646,1.236,1.284,2.013,2.092-.083.585-.2,1.35-.345,2.328l1.485.817,9.5-11.007c.882.9,1.625,1.651,2.428,2.472,1.053-.834,1.974-1.559,2.813-2.223.345.074.6.048.712.162.686.708,1.288,1.494,2.009,2.158.755.694,1.878-.009,2.8.747.559.459,1.7.21,2.752.3a7.518,7.518,0,0,1-.109,2.874c-.109.891-.445,1.765-.472,2.651-.044,1.677-.306,3.2-1.747,4.276-1.254,3.28-3.962,5.495-6,8.2a2.284,2.284,0,0,0-.66,1.572,5.374,5.374,0,0,1-1.546,4.4,2.038,2.038,0,0,0-.3.524c-.777,1.468-.428,2.538,1.079,3.132a9.572,9.572,0,0,0,1.468.341l-.061-.07c-.126.266-.428.607-.349.786a4.092,4.092,0,0,1-.205,3.63l2.974,3.983a6.131,6.131,0,0,1,4.206.957,1.463,1.463,0,0,1-.585,1.411c-.594.537-1.114,1.153-1.708,1.7a3.9,3.9,0,0,0-1.175,2.8l1.625,1.153c-.424.8-.695,1.319-.956,1.821a3.852,3.852,0,0,0,2.607,2.232,1.164,1.164,0,0,0,.808-.306c1.031-1.476,2.424-1.109,3.787-.76,1.053.271,2.083.638,3.088.948.629-.4,1.214-.773,1.747-1.109a3.225,3.225,0,0,1,2.153,1.961c-.013.987-.874,1.053-1.354,1.511-1.232,1.175-2.354,2.442-4.215,2.673-.432.052-.834.524-1.206.852a30.232,30.232,0,0,0-2.411,2.254,15.824,15.824,0,0,0-1.336,1.869c-.022,1.232,1.965.808.952,2.114.384.127.572.253.742.231a7.535,7.535,0,0,0,3.547-1.35,15.666,15.666,0,0,1,6.709-3.1c2.691-.389,5-1.957,7.2-3.525a7.01,7.01,0,0,1,2.7-1.14c1.114-.249,2.354-.227,3.354-1a2.523,2.523,0,0,1,2.31-.28l-.061-.057c-.074.288-.31.725-.2.843,1.262,1.389,1.887,3.306,3.761,4.442,1.157-.031,2.5-.083,3.136-1.511s.262-2.245-1.437-3.87a1.691,1.691,0,0,1,2.153-.175c.5.341.974.712,1.446,1.088s.922.764,1.323,1.1c0,1.009.031,1.808,0,2.608a4.462,4.462,0,0,0,.69,2.581,11.92,11.92,0,0,1,.8,1.275,10.645,10.645,0,0,1,1.21,5.722,46.458,46.458,0,0,1-1.782,8.814c-.917,2.843-1.254,5.866-1.966,8.784a26.885,26.885,0,0,1-1.428,3.94c-1.114,2.682-2.319,5.324-3.411,8.01-1.057,2.6-2.411,5.049-3.656,7.556-1.712,3.451-4.32,6.215-6.39,9.382-1.42,2.171-2.839,4.35-4.1,6.617a35.223,35.223,0,0,1-5.455,7.154,35.92,35.92,0,0,0-4.813,6.836,2.848,2.848,0,0,0-.31.839c-.52,2.472-.515,2.472-1.843,4.285.127.332.24.716.406,1.074a2.243,2.243,0,0,1-.332,2.529,12,12,0,0,0-2,3.337,2.45,2.45,0,0,0-.083,2.249,2.073,2.073,0,0,1-.376,2.262,26.921,26.921,0,0,1-2.311,2.752,19.616,19.616,0,0,1-6.246,4.582c-.275.109-.511.4-.786.428-1.935.232-3.158,1.59-4.529,2.747s-2.87,2.188-4.276,3.315c-2.031,1.62-4.215,3.071-5.813,5.176-2.092.708-3.079,2.756-4.783,3.975a35.161,35.161,0,0,0-4.293,4.1c-2.184,2.215-4.276,4.521-6.508,6.678-1.926,1.861-4.088,3.507-5.6,5.752-.611.909-1.856,1.031-2.206,2.337-.266.97-1.28,1.756-2,2.59s-1.463,1.629-2.21,2.429a10,10,0,0,1-1.284,1.262c-2.114,1.555-3.464,3.857-5.451,5.534a.9.9,0,0,0-.214.214c-2.9,4.844-7.7,7.775-11.688,11.522-2.551,2.4-5.372,4.508-8.076,6.748-.6,1.306-2.249,1.367-3.005,2.712-.633,1.127-2.105,1.769-3.18,2.66s-2.049,1.9-3.184,2.695a7.765,7.765,0,0,0-2.332,2.7,19.478,19.478,0,0,1-4.761,5.368c-2.45,2.048-4.783,4.241-7.351,6.023a4.522,4.522,0,0,1-1.607,4.136c-2.717,2.21-5.145,4.739-7.871,6.932-.231.188-.5.336-.747.507l-.1-.122.153.079c-2.752,2.114-5.5,4.241-8.259,6.342-2.21,1.686-4.438,3.346-6.661,5.014-.9-.048-.791,1.048-1.441,1.28l.039.083c-.24-.4-.48-.485-.729-.009l.061-.092.022.756-.1-.039c-3.132,2.49-6.272,4.966-9.4,7.469-3.826,3.062-7.373,6.482-11.653,8.971a18.28,18.28,0,0,0-2.6,2.455,22.287,22.287,0,0,1-2.354,1.839c-1.074.725-2.3,1.249-3.3,2.057-2.739,2.214-5.682,4.119-8.587,6.089-2.734,1.856-5.342,3.887-8.054,5.77-1.8,1.249-3.664,2.437-5.573,3.52-.943.533-2.079.7-3.079,1.149-.52.236-1.236.638-1.336,1.083-.288,1.267-1.4,1.367-2.214,1.839-1.642.948-1.913.773-2.608-1.446.6-.686,1.236-1.437,1.891-2.171a4.227,4.227,0,0,1,3.957-1.695,2.447,2.447,0,0,0,1.695-.4c1.966-1.542,3.852-3.184,5.77-4.792a2.116,2.116,0,0,0,.236-.332l-.223-2.267c-.227-.013-.576-.144-.8-.031q-4.94,2.5-9.858,5.067c-2.2,1.149-4.547,1.961-6.744,3.119-1.686.887-3.359,1.8-5.067,2.638a16.2,16.2,0,0,1-2.227.721c-.065-.367-.087-.563-.135-.751-.1-.376-.1-.9-.345-1.088a2.246,2.246,0,0,0-1.385-.419,3.978,3.978,0,0,0-1.341.555c-2.018.978-4.066,1.747-6.486,1.009l-.581,1.821c-3.092,1.38-6.268,2.83-9.469,4.206a4.351,4.351,0,0,1-2.044.3c-.769-.07-1.511-.542-2.276-.581a8.772,8.772,0,0,0-2.245.55,6.109,6.109,0,0,1,.646-1.306,1.861,1.861,0,0,0,.393-2.21c-.271-.585-.472-1.245-.022-1.7,1.105-1.118.882-2.35.546-3.638-.1-.384-.205-.764-.31-1.144l.188-.035-.21.083c-.852-1.066-2.245-.681-3.315-1.21-.336-.17-.965.131-1.411.328-1.1.48-2.145,1.079-3.254,1.529a4.779,4.779,0,0,1-1.725.293c-.839,0-.909-.118-1.555-1.642,1.192-1.162,2.276-2.538,1.389-4.394-.786-1.647-1.62-3.341-4.542-2.948a27.468,27.468,0,0,0,2.4-2.132,1.478,1.478,0,0,0-1.07-2.581,8.254,8.254,0,0,0-4.394.694c-1.114.633-2.123,1.441-3.446,2.359l-1.642-.232c-.109-.24-.28-.428-.253-.577.275-1.538.581-3.071.9-4.722a4.547,4.547,0,0,1-3.123-3.446,1.682,1.682,0,0,1,.227-1.385c1.035-.965.865-2.158.891-3.293-.507-.515-.97-.991-1.437-1.468l.175-.057-.188.1a52.7,52.7,0,0,0-10.95,3.975c-1.066.546-2.114,1.118-3.167,1.677-.437-.362-.345-.721.035-.965.668-.432,1.385-.791,2.066-1.21a3.844,3.844,0,0,0,2.193-3.189l-1.341-1.861c.179-.529.214-1.245.585-1.6a2.205,2.205,0,0,0,.52-2.7,3.6,3.6,0,0,1-.022-1.192c.834-.633,1.651-1.192,2.4-1.839a3.024,3.024,0,0,0,1.114-2.354,2.713,2.713,0,0,0-1.149-2.158c-1.162.432-2.463.874-3.014,2.132a3.236,3.236,0,0,1-2.988,2.114,3.171,3.171,0,0,0-3.075,2.708,19.508,19.508,0,0,1-2.057.7,4.792,4.792,0,0,0-2.04,1.157,16.021,16.021,0,0,1-2.988,1.913c-3.119,1.581-6.215,3.189-9.2,5.01-.769.467-1.428,1.131-2.223,1.533-.773.393-1.358,1.2-2.4,1.083a1.275,1.275,0,0,0-.983.511c-1.45,2.075-3.822,2.857-5.8,4.162-3,1.979-6.084,3.822-9.072,5.809a19.79,19.79,0,0,0-2.415,2.245,21.136,21.136,0,0,1-1.756,1.616c-.485.367-.987.563-.795,1.385.052.223-.612.777-1.04.926a27.646,27.646,0,0,1-4.6,1.336,11.455,11.455,0,0,0-4.468,1.62c-.961.612-1.918,1.524-3.267,1.171l-.017.07c.066-.485.127-.965.219-1.638-2.446-.782-4.757-1.69-7.347-.118l-1.817-1.341a2.734,2.734,0,0,0-2.193.808,1.3,1.3,0,0,1-1.673.153,2.022,2.022,0,0,0-2.258-.162,6.607,6.607,0,0,1-3.455.559,2.4,2.4,0,0,1-.581-2.577,5.932,5.932,0,0,0-.31-4.639,3.65,3.65,0,0,1,0-2.874c.694-1.979.376-2.6-1.206-3.9a2.351,2.351,0,0,0-1.957-.555,11.341,11.341,0,0,0-2.28.725c-.463.183-.865.515-1.319.725-2.4,1.105-2.87.446-3.809-.961-.223-.328-.463-.646-.7-.978a8.144,8.144,0,0,0-6.966.69,2.611,2.611,0,0,1-1.411.411,11.3,11.3,0,0,0-4.687.93,5.148,5.148,0,0,1-5.626-.791,4.311,4.311,0,0,0-2.446-1.057c-1.026-.092-1.24-.725-.729-1.7.646-1.24,1.319-2.472,2.022-3.682a2.743,2.743,0,0,0,.162-2.822,9.387,9.387,0,0,1-.349-2.647,2.733,2.733,0,0,0-2.983-2.726c-1.607.009-3.206.227-4.813.315a8.168,8.168,0,0,1-2.066-.052,11.267,11.267,0,0,0-4.459-.336,2.809,2.809,0,0,1-1.974-.467c-1.6-1.184-3.551-1.865-4.909-3.4a4.291,4.291,0,0,0-3.114-1.62c-.45-.017-.882-.432-1.306-.655-.908-1.974-.275-3.774.69-5.451.489-.856.97-1.7,1.424-2.581a8.772,8.772,0,0,1,1.992-2.236,6.278,6.278,0,0,0,1.791-3.28c-2.743-.1-5.447-.882-7.644,1.323l-1.865-.45c0-.708-.031-1.293.009-1.874.079-1.271.441-2.5-.109-3.8a3.5,3.5,0,0,1,.646-3.376c2.215-3.459,4.888-6.6,6.945-10.168a10.629,10.629,0,0,1,2.389-2.228c.86-.751.729-1.616-.384-2a15.69,15.69,0,0,0-1.948-.437c-2.594,1.765-3.4,5.132-6.451,6.495l-1.725-2.5a5.7,5.7,0,0,0-1.109.664c-1.634,1.629-3.228,3.293-4.857,4.931A2.981,2.981,0,0,0,351,396.99a5.745,5.745,0,0,1,.118,2.062,1.753,1.753,0,0,0,.345,1.385c.646.847.14,1.52-.393,2.131a1.141,1.141,0,0,1-1.625.214c-.86-.655-1.634-1.419-2.538-2.219.41-1.612-.411-3.263.253-4.936a2.1,2.1,0,0,0-.293-1.712,4.418,4.418,0,0,1-.271-4.564,2.07,2.07,0,0,0,0-.5c-1.171-.773-1.026-2.324-1.612-3.647-.367-.114-.734-.236-1.109-.341-2.669-.751-2.669-.751-4.778.852-.533-.681.018-1.184.384-1.559,1.118-1.149,2.2-2.324,3.3-3.481,2.14-2.241,4.538-4.232,6.8-6.364q3.833-3.617,7.591-7.312a1.128,1.128,0,0,0,.266-1.022,1.251,1.251,0,0,0-.991-.45,26.07,26.07,0,0,0-2.66.349c-.585.087-1.162.205-1.738.31-.245-.293-.428-.524-.62-.747-.38-.437-.69-1.074-1.166-1.254a2.172,2.172,0,0,0-2.219.607c-.795.764-1.489,1.629-2.223,2.455a24.05,24.05,0,0,1-1.791,2.022,43.119,43.119,0,0,0-3.883,3.306,39.036,39.036,0,0,0-2.739,4.254,3.309,3.309,0,0,1-1.987,1.751,2.132,2.132,0,0,1-1.743-2.153,2.274,2.274,0,0,1,1.175-1.952,16.616,16.616,0,0,0,2.59-2.52c1.171-1.367,2.21-2.839,3.887-3.7.5-.258.817-.86,1.24-1.284s.8-.991,1.31-1.153c1.62-.5,2.293-1.9,3.145-3.114a3,3,0,0,0,.157-3.162,15.936,15.936,0,0,0-1.983-2.642,3.582,3.582,0,0,0-2.948-1.083,3.9,3.9,0,0,1-.45-3.822c.651-1.485,1.205-2.953,2.961-3.573a9.236,9.236,0,0,0,2.236-1.468,11.209,11.209,0,0,1,5.11-2.4,4.531,4.531,0,0,0,1.406-.472c3.11-1.6,6.106-3.4,9.054-5.285,1.6-1.022,3.154-2.132,4.822-3.027,3.9-2.092,7.351-4.844,11.042-7.251a17.4,17.4,0,0,0,4.966-4.739,8.4,8.4,0,0,0,.633-1.555c-2.372-.376-4.473-.515-6.25,1.232-1.092,1.074-2.245,2.057-3.962,1.66l.048.057c.646-.585,1.275-1.2,1.948-1.756,1.3-1.092,2.673-2.1,3.931-3.237,2-1.813,3.852-3.8,5.927-5.521a23.215,23.215,0,0,0,4.228-5.005,18.978,18.978,0,0,1,3.04-3.691c.839-.747.817-.773,1.223-2.551-.515-.59-1.074-.367-1.612-.061a46.831,46.831,0,0,0-8.626,6.456c-1.236,1.149-2.708,2.083-3.5,3.7-.232.472-.887.773-1.4,1.07a26.171,26.171,0,0,0-4.6,3.363,24.864,24.864,0,0,1-6.639,4.586c-.5-.393-.114-.721.131-.965q2.653-2.66,5.355-5.281a17.854,17.854,0,0,1,1.647-1.319c2-1.507,4.04-2.974,4.9-5.521.21-.625.808-1.109,1.1-1.717a4.673,4.673,0,0,0,.236-1.337c-.616-.7-1.192-.306-1.625.052a40.2,40.2,0,0,0-3.573,3.206,15.92,15.92,0,0,1-3.547,2.756c-.948.559-1.769,1.328-2.691,1.926a7.859,7.859,0,0,1-1.655.537c.48-1.52,1.572-2.14,2.249-3.036.708-.943,1.612-1.743,1.625-2.97-.428-.55-.839-.288-1.127-.087-.66.45-1.262.983-1.887,1.489a19.7,19.7,0,0,1-4.167,2.948,10.119,10.119,0,0,0-2.162,1.6c-1.533,1.293-2.979,2.7-4.573,3.914-2.878,2.188-5.438,4.743-8.207,7.054-.616.511-1.109,1.21-1.987,1.258-.367.022-.922-.009-1.079-.232a1.956,1.956,0,0,1-.314-1.367,2.314,2.314,0,0,1,.795-1.245c2.721-2.11,4.5-5.075,6.853-7.517a12.207,12.207,0,0,0,2.372-3.062,9.541,9.541,0,0,1,1.9-2.306,43.087,43.087,0,0,1,3.311-3.075,5.378,5.378,0,0,0,1.839-3.726l-1.647-1.092a2.575,2.575,0,0,0-.725.24q-5.9,4.933-11.78,9.88a11.477,11.477,0,0,1-1.206.9c-1.284.791-1.638.694-3.136-.9,2.407-2.712,5-5.368,5.888-9.312a4.038,4.038,0,0,0-1.057.009c-2.477.738-4.3,2.529-6.342,3.966-1.144.8-2.324,1.559-3.486,2.332l.048.057c.21-1.441,1.542-2,2.394-2.9a29.107,29.107,0,0,0,5.15-6.565,8.569,8.569,0,0,1,1.808-2.328c1.45-1.354,2.477-2.809,2.276-4.936a13.854,13.854,0,0,1,.218-2.6c-1.271-1.73-2.974-1.686-4.595-1.013a20.072,20.072,0,0,1-5.163,1.454,7.47,7.47,0,0,0-2.52.922,3.505,3.505,0,0,1-4.176-.345q-1.173-.93-2.284-1.935c-.812-.729-1.594-1.494-2.485-2.337a11.256,11.256,0,0,0-1.9.913,3.122,3.122,0,0,1-3.368.384l-.009.083c.232-.764.459-1.529.734-2.442a5.945,5.945,0,0,1-1.616-4.232c.052-.7-.6-1.441-.874-2.188a3.253,3.253,0,0,1,.467-3.643,7.431,7.431,0,0,0,1.223-2.376,1.509,1.509,0,0,0-1.454-2.088,6.093,6.093,0,0,0-2.258.664,30.328,30.328,0,0,0-3.389,1.957,7.945,7.945,0,0,1-3.957,1.205c-1.3.1-2.433.066-3.154-1.149-.563-.952-1.681-.489-2.49-1.131a7.435,7.435,0,0,1,1.821-3.56,5.922,5.922,0,0,0,1.931-4.442c-.773-.537-1.651-1.144-2.485-1.721-1.9-.28-2.725,1.537-4.621,2.254.734-1.057,1.223-1.765,1.773-2.555a1.265,1.265,0,0,0,.057-.445c-.45-2.254-.812-2.564-2.883-2.507-.4.013-.8.022-1.2.074-.6.079-1.192.2-1.83.306a2.455,2.455,0,0,1-.769-2.385,4.895,4.895,0,0,0,.14-2.337,2.082,2.082,0,0,1,.607-2.616c.3-.266.24-.93.38-1.4a4.416,4.416,0,0,1,2.092-2.979,30.2,30.2,0,0,0,4.337-3.656l.214.127-.253-.087a13.44,13.44,0,0,0,3.931-2.634c1.131-1.184,2.625-2,3.883-3.079a4.984,4.984,0,0,0,2.009-2.874c.236-1.157,1.546-1.835,2.546-2.376a10.523,10.523,0,0,0,1.7-1.053,4.088,4.088,0,0,1,2.656-1.258,1.73,1.73,0,0,0,.826-.31c2.394-1.424,4.8-2.822,7.154-4.311a3.583,3.583,0,0,1,1.852-.852,1.491,1.491,0,0,0,.813-.363c3.651-2.948,7.941-4.979,11.535-8a6.045,6.045,0,0,1,1.428-1.1,5.873,5.873,0,0,0,2.826-2.594,5.375,5.375,0,0,1,3.28-2.437,6.776,6.776,0,0,0,2.953-1.9A40.334,40.334,0,0,1,362.327,207a4.267,4.267,0,0,0,1.983-3.1,1.01,1.01,0,0,0-1.437-.135c-1.747.983-3.516,1.952-5.193,3.049a27.01,27.01,0,0,0-4.254,2.774,3.462,3.462,0,0,1-2.455.869,4.254,4.254,0,0,0-3.044.983,14.663,14.663,0,0,1-2.057,1.223,2.377,2.377,0,0,1-1.428.17,1.448,1.448,0,0,0-1.9,1.013c-.511,1.708-2.035,2.1-3.3,2.843-2.105-.8-3.359,1.437-5.241,1.476a1.389,1.389,0,0,0-.778.419c-3.311,3.1-7.3,5.281-10.863,8.032a2.523,2.523,0,0,1-1.337.59c-3.494.044-5.94,2.118-8.386,4.211-.293.253-.6.6-.943.66a10.555,10.555,0,0,0-4.241,2.188c-1.974,1.367-3.927,2.778-5.971,4.04a9.11,9.11,0,0,0-3.49,3.223c-.17.3-.651.432-1.149.743-.345-.507-.633-1-.974-1.437-.852-1.1-1.642-2.193-3.241-2.4-1.157-.148-1.371-1.026-.673-1.944,2.59-3.389,3.023-3.813,6.849-6.486,2.284-1.59,4.591-3.167,6.945-4.63,1.341-.834,2.774-1.564,4.1-2.459a7.15,7.15,0,0,1,1.389-.533c.555-.21,1.271-.28,1.634-.673,1.494-1.612,3.533-2.21,5.4-3.145a11.605,11.605,0,0,0,2-1.289,21.583,21.583,0,0,1,4.848-2.983,27.315,27.315,0,0,0,3.105-1.8c.341-.21.62-.625.97-.681,3.1-.528,5.032-3.127,7.753-4.342a26.627,26.627,0,0,0,3.673-2.568,77.466,77.466,0,0,1,7-4.591c3.189-1.69,6.036-3.879,9.089-5.752a14.5,14.5,0,0,0,1.668-1.258,42.862,42.862,0,0,1,7.814-5.551,5.684,5.684,0,0,0,2.76-3.752,1.774,1.774,0,0,0-.332-1.367,8.971,8.971,0,0,0-1.5-1.245c-5.814,3.263-11.492,6.447-17.165,9.635a21.953,21.953,0,0,0-2.07,1.236A55.5,55.5,0,0,1,341.72,196c-2.118,1.136-4.062,2.594-6.089,3.9a18.839,18.839,0,0,1-1.821,1.044,100.491,100.491,0,0,0-12.348,6.862c-1.651,1.131-3.5,1.966-5.211,3.027-2.035,1.271-4.027,2.625-6.019,3.962q-3.112,2.09-6.189,4.228c-1.223.852-2.411,1.756-3.608,2.629-1.721-1.979-2.315-2.337-4.289-2.271a3.476,3.476,0,0,0-1.987.515c-1.865,1.564-4.215,2.276-6.172,3.669a7.375,7.375,0,0,0-2.555,2.861,18.9,18.9,0,0,1-1.839,2.656c-2.262-1.123-2.642-2.686-1.192-4.267a7.34,7.34,0,0,0,1.219-1.319,2.228,2.228,0,0,1,1.581-1.223,6.348,6.348,0,0,0,2.809-1.673,6.445,6.445,0,0,1,2.669-1.852c.756-.2,1.323-1.157,1.931-1.817s1.118-1.406,2.149-1.507a1.583,1.583,0,0,0,.992-.563,9.351,9.351,0,0,1,3.7-2.5,23.735,23.735,0,0,0,5.827-4.066,13.974,13.974,0,0,0,2.516-3.7,2.548,2.548,0,0,1,.777-1.114,14.8,14.8,0,0,1,5.914-1.987,11.884,11.884,0,0,0,2.311-.5,17.138,17.138,0,0,0,4.333-2.057,47,47,0,0,1,6.137-3.608,25.388,25.388,0,0,0,3.774-2.385,17.474,17.474,0,0,1,3.922-2.18,5.69,5.69,0,0,0,3.914-4.652c-2.428-.485-4.163.812-5.949,1.8-.625.341-1.144.791-1.909.673l-.048-.17.1.205a1.075,1.075,0,0,1-1.319.52l.07.087c-.035-.791-.074-1.577-.1-2.149a43.2,43.2,0,0,0,3.752-2.686c1-.882,2.551-.48,3.381-1.62,1.778-.559,2.787-2.223,4.337-3.049s3.363-1.175,4.931-1.983a37.348,37.348,0,0,0,3.931-2.7,5.062,5.062,0,0,1,1.494-.948c1.791-.432,2.625-1.668,3.119-3.446-.288-.5-.633-1.092-1-1.721a5.651,5.651,0,0,1,2.358-2.529c.5-.323.97-.7,1.45-1.057a1.761,1.761,0,0,0,.55-2.38c-3.036-.69-3.136-.926-5.006,2.162l-2.725,1.1Zm28.425,206.539.135-.061-.057.14-.179.092Zm8.478-224.7.135-.21-.109.245-.2.061Zm361.831,45.386-.14.441.079-.507.476-.079-.188-.293ZM663.707,42.921a12.819,12.819,0,0,0-2.048.009,1.186,1.186,0,0,0-.747.734c-.144.537.384.594.747.6A2.391,2.391,0,0,0,663.9,43.1l.341-.463ZM350.267,390.949a6.928,6.928,0,0,0,1.21-.786c1.564-1.551,3.053-3.18,4.639-4.708,2.223-2.153,4.1-4.687,7-6.119a6.1,6.1,0,0,0,2.4-2.643,6.225,6.225,0,0,1,1.319-1.555c2.258-1.992,4.56-3.922,6.8-5.927a7.457,7.457,0,0,0,1.013-1.73c-.642,0-1.105-.14-1.358.031a3.167,3.167,0,0,0-1.206,1.245,3.355,3.355,0,0,1-1.6,1.708,21.394,21.394,0,0,0-2.057,1.258c-1.3.935-2.559,1.922-3.839,2.883-.323,1.734-1.861,2.162-3.11,2.9a5.975,5.975,0,0,0-.97.716,116.03,116.03,0,0,0-8.937,9.369,8.245,8.245,0,0,0-1.315,2.014c-.17.38.031.926.066,1.4a.7.7,0,0,0-.223.061c-.035.022-.035.1-.048.153Zm155.187,34.505.044.17-.1-.192a16.591,16.591,0,0,1,2.424-1.083,6.857,6.857,0,0,0,1.9-.747,58.828,58.828,0,0,1,10.26-4.87,5.148,5.148,0,0,0,1.3-.673c.952-.725,1.87-1.5,2.782-2.276.891-.756.9-.961.144-2.651-.55.048-1.149.052-1.73.157-.371.07-.926.2-1.035.454-.62,1.468-2.075,1.83-3.25,2.455-3.429,1.83-6.945,3.486-10.413,5.228a20.92,20.92,0,0,0-2.079,1.206,5.716,5.716,0,0,0-1.122.983.86.86,0,0,0,.157,1.306A8.592,8.592,0,0,0,505.454,425.455ZM497.129,94.836l.031.166-.087-.1c1.092-.865,2.188-1.721,3.276-2.6.385-.315.69-.8,1.123-.974,2.5-1.009,4.232-2.988,6.176-4.7A7.664,7.664,0,0,1,509.778,85c2.717-1,4.6-3.171,6.875-4.765a27.538,27.538,0,0,0,3.726-3.49,1.409,1.409,0,0,0,.175-1.114.894.894,0,0,0-1.2-.6,10.257,10.257,0,0,0-4.154,2.241,24.311,24.311,0,0,1-3.551,2.747c-1.245.8-1.974,2.228-3.547,2.643A3.068,3.068,0,0,0,506.524,84a5.777,5.777,0,0,1-3.092,2.245,7.566,7.566,0,0,0-2.11,1.118c-1.529,1.284-2.957,2.691-4.446,4.018a8.427,8.427,0,0,1-1.45,1.066c-2.415,1.4-4.857,2.752-7.277,4.145-1.738,1-3.481,2-5.163,3.084a15.458,15.458,0,0,0-3.822,2.87,21.919,21.919,0,0,1-3.927,3.228c-2.2,1.738-4.477,3.372-6.757,5-1.533,1.1-3.092,2.171-4.708,3.136a3.7,3.7,0,0,0-1.891,1.813c-.231.616-.887.69-1.419.961-2.643,1.354-5.6,2.2-7.583,4.634a4.224,4.224,0,0,1-.93.756c-2.136,1.476-4.294,2.922-6.416,4.42a14.318,14.318,0,0,0-1.49,1.376c.319.625.7.852,1.28.7A17.624,17.624,0,0,0,451,125.943,67.224,67.224,0,0,1,460.1,120.3a18.511,18.511,0,0,0,6.416-4.87,8.887,8.887,0,0,1,5.337-3.049,4.781,4.781,0,0,0,2.385-1.1,7.3,7.3,0,0,1,2.2-1.459,25.246,25.246,0,0,0,4.971-2.778c1.489-1.249,2.839-2.664,4.368-3.914,1.861-1.52,3.892-2.778,5.748-4.28C493.312,97.413,495.255,96.168,497.129,94.836Zm-139.17,72.4c.315,1.153,1.013,1.463,1.695,1.341,2.385-.415,4.778-1.048,6.434-2.913a5.916,5.916,0,0,1,3.8-2.131c1.992-.21,3.193-1.463,4.473-2.682a2.329,2.329,0,0,0,.537-1.053c.07-.262.048-.716-.109-.826a1.29,1.29,0,0,0-1.044-.249c-2.6,1.262-5.171,2.586-7.757,3.887a11.064,11.064,0,0,1-1.336.6A22.4,22.4,0,0,0,357.959,167.232Zm17,9.43c1.42,1.214,1.42,1.192,2.035,1.219,3.254.148,5.949-1.406,8.644-2.887a4.532,4.532,0,0,0,1.35-1.559.968.968,0,0,0-.2-1.341c-.3-.249-.629-.463-1.083-.795a55.547,55.547,0,0,0-5.206,2.027C378.662,174.238,376.972,175.43,374.954,176.662ZM504.367,416.457c1.424,2.057,1.406,2,3.337,1.424a14.937,14.937,0,0,0,3.809-1.708c1.441-.909,2.913-1.765,4.372-2.642a1.589,1.589,0,0,0,.882-1.944,1.723,1.723,0,0,0-2.127-.577,6.6,6.6,0,0,0-.773.454c-.961.542-1.961,1.022-2.874,1.629-1.354.9-2.7,1.721-4.412,1.28C505.786,415.12,505.07,415.8,504.367,416.457ZM378.994,156.3a4.6,4.6,0,0,0,1.114.7,6.112,6.112,0,0,0,4.538-1c.6-.345,1.162-1,1.778-1.04,1.3-.1,2.2-.913,3.263-1.415.157-.07.249-.288.336-.393v-1.909a4.57,4.57,0,0,0-1.524.026c-1.647.681-3.258,1.454-4.879,2.2-1.092.5-2.2.957-3.25,1.533A7.987,7.987,0,0,0,378.994,156.3ZM367.38,403.389l2.485,2.206a3.428,3.428,0,0,0,2.616-3.123,1.776,1.776,0,0,0-1.066-2.184,3.452,3.452,0,0,0-2.778-.328C368.25,401.021,367.817,402.2,367.38,403.389Zm15.628-30.548c-1.778.69-2.992.97-3.949,1.987a4.043,4.043,0,0,1-2.8,1.6c-2.2.039-3.721,1.332-5.189,2.725-.157.153-.135.5-.218.839.389.044.729.188.948.087q2.3-1.094,4.551-2.284a15.542,15.542,0,0,1,2.6-1.463,12.386,12.386,0,0,0,3.42-2.044C382.576,374.155,382.615,373.779,383.008,372.84ZM510.237,78.706c-1.9-.275-3.193-.236-4.246.62a2.666,2.666,0,0,0-1.105,3.009c.555-.061,1.254.066,1.621-.223C507.66,81.2,508.691,80.143,510.237,78.706ZM639.514,50.25a3.261,3.261,0,0,0-3.35.9c-.218.214-.179.738-.179,1.118a.569.569,0,0,0,.765.616A3.9,3.9,0,0,0,639.514,50.25Zm9.076,2.158c-.057-.459-1-.987-1.419-.712a5.564,5.564,0,0,0-1.284,1.175c-.38.463-.009,1.2.62,1.363A1.71,1.71,0,0,0,648.591,52.408ZM400.754,144.721c-1.315-.306-2.236.646-3.333.926-.563.14-1.371.389-1.14,1.061.306.891.908-.009,1.376-.013A3.5,3.5,0,0,0,400.754,144.721Zm277.362,17.842a9.82,9.82,0,0,0-1.944.795c-.2.144-.219.694-.144,1.022.039.162.476.323.729.319C677.85,164.668,677.828,163.76,678.117,162.563Zm103.6,44.333c.515.459.8.869,1.188,1a1.065,1.065,0,0,0,.957-.367,1.313,1.313,0,0,0-.039-1.04.8.8,0,0,0-.7-.314A8.13,8.13,0,0,0,781.716,206.9ZM379.09,152.77c-.97.061-1.957.083-2.5,1.219C378.16,153.784,378.16,153.784,379.09,152.77Zm15.947-3.127c-1.088-.777-1.66-.52-2.088.127a.838.838,0,0,0-.035.76c.131.188.581.376.721.288A11.536,11.536,0,0,0,395.037,149.643Zm48.7-33.619c-.118-.223-.17-.459-.266-.476a.622.622,0,0,0-.485.162c-.066.07.022.293.039.446Zm69.055,314.047-.5.594c.083.052.188.166.24.144.232-.092.445-.223.668-.336ZM676.37,29.276c-.21.135-.437.21-.445.306a.6.6,0,0,0,.179.489c.083.066.31-.044.472-.079ZM644.944,53.832a2.163,2.163,0,0,0-.376.3.38.38,0,0,0,.039.271,2.314,2.314,0,0,0,.459-.031Zm-262.9,97.253-.188-.017.079.2Zm-7.176,154.982a2.676,2.676,0,0,0-.52-.17c-.065-.009-.148.118-.223.183.127.1.253.262.384.271C374.626,306.354,374.749,306.171,374.871,306.066ZM707.56,120.881l.083.192.092-.192Z" transform="translate(0 8.656)" fill="#1a212e"/>
    <path id="Path_5913" data-name="Path 5913" d="M298.893,59.289a12.01,12.01,0,0,1-5.11,2.791,7.941,7.941,0,0,0-2.123,1.1c-2.262,1.28-4.5,2.608-6.792,3.826-.738.393-1.472,1.114-2.472.694-.017-.205-.109-.48-.035-.546,2.559-2.075,5.132-4.128,7.906-6.351a5.038,5.038,0,0,0,3.2-.336A17.263,17.263,0,0,1,298.893,59.289Z" transform="translate(2.66 142.709)" fill="#1a212e"/>
    <path id="Path_5914" data-name="Path 5914" d="M372.619,17.385l1.026-.083c1.284,1.454.362,3.678,1.922,5-.668,1.668-.961,3.485-2.306,4.966-.24-.293-.59-.537-.55-.686C373.471,23.592,372.768,20.621,372.619,17.385Z" transform="translate(306.725 1.307)" fill="#1a212e"/>
    <path id="Path_5915" data-name="Path 5915" d="M368.071,18.721l5.219.406c.812.729.8,1.424.031,2.293h-3.957C369.045,20.756,368.63,19.892,368.071,18.721Z" transform="translate(291.408 6.086)" fill="#1a212e"/>
    <path id="Path_5916" data-name="Path 5916" d="M383.655,39.671a8.5,8.5,0,0,1-.777,4.184c-1.053-.821-1.966-1.533-2.848-2.223C380.606,39.811,382.3,40.7,383.655,39.671Z" transform="translate(331.68 76.64)" fill="#1a212e"/>
    <path id="Path_5917" data-name="Path 5917" d="M298.249,109.533c-.135-.065-.183-.341-.249-.528-.205-.577-.411-1.214.271-1.577a1.243,1.243,0,0,1,1.07.052,1.17,1.17,0,0,1,.441,1.791C299.381,110.009,298.8,109.8,298.249,109.533Z" transform="translate(54.761 304.503)" fill="#1a212e"/>
    <path id="Path_5918" data-name="Path 5918" d="M367.462,19.608l2.022,1.66h-3C366.034,20.1,367.161,20.272,367.462,19.608Z" transform="translate(285.719 9.073)" fill="#1a212e"/>
    <path id="Path_5919" data-name="Path 5919" d="M300.509,109.868l.62,1.655c-.459.6-1.018.948-1.5.38C299.037,111.191,299.7,110.72,300.509,109.868Z" transform="translate(60.149 313.048)" fill="#1a212e"/>
    <path id="Path_5920" data-name="Path 5920" d="M316,44.147a7.106,7.106,0,0,1,2.551-1.673c.188.14.341.223.332.253-.175.5-.367,1-.568,1.529l-2.394-.2Z" transform="translate(115.793 86.08)" fill="#1a212e"/>
    <path id="Path_5921" data-name="Path 5921" d="M338.424,30.538c-.336,1.184-1.345,1.441-2.817,2.118a4.741,4.741,0,0,1,2.892-2.044Z" transform="translate(182.077 45.883)" fill="#1a212e"/>
    <path id="Path_5922" data-name="Path 5922" d="M319.182,43.109a4.14,4.14,0,0,1-2.2.454c.668-.611,1.149-1.053,1.856-1.7.14.633.214.978.284,1.319Z" transform="translate(119.349 84.012)" fill="#1a212e"/>
    <path id="Path_5923" data-name="Path 5923" d="M381.615,48.686c.913-.114,1.35.24,1.319,1.1,0,.157-.192.454-.249.446-.223-.039-.528-.127-.62-.3A7.725,7.725,0,0,1,381.615,48.686Z" transform="translate(337.022 106.931)" fill="#1a212e"/>
    <path id="Path_5924" data-name="Path 5924" d="M316.888,121.225c-.306.437-.611.865-1.175.424-.1-.087-.153-.467-.074-.528A.8.8,0,0,1,316.888,121.225Z" transform="translate(114.698 350.094)" fill="#1a212e"/>
    <path id="Path_5925" data-name="Path 5925" d="M380.935,41.036a2.452,2.452,0,0,1-.69,2.2c-.7-.882.393-1.4.415-2.114l-.07-.013a.275.275,0,0,0,.424-.022Z" transform="translate(331.622 81.237)" fill="#1a212e"/>
    <path id="Path_5926" data-name="Path 5926" d="M389.475,57.458c.078-.546-.127-1.2.611-1.537.044.642-.384,1.026-.677,1.472Z" transform="translate(363.27 131.367)" fill="#1a212e"/>
    <path id="Path_5927" data-name="Path 5927" d="M295.115,105.412a2.836,2.836,0,0,1,.834.087c.118.052.14.328.205.5a2.054,2.054,0,0,1-.642-.048C295.373,105.892,295.3,105.678,295.115,105.412Z" transform="translate(45.709 298.041)" fill="#1a212e"/>
    <path id="Path_5928" data-name="Path 5928" d="M380.61,39c.057.079.144.149.166.236.057.245.2.651.109.716-.38.271-.7.109-.869-.323l-.035.048.7-.712Z" transform="translate(331.519 74.263)" fill="#1a212e"/>
    <path id="Path_5929" data-name="Path 5929" d="M292.132,59.851c-.2-.795.262-1.131.935-1.319l-.079-.074c.1.734-.646.9-.935,1.376Z" transform="translate(35.401 139.911)" fill="#1a212e"/>
    <path id="Path_5930" data-name="Path 5930" d="M329.83,34.433c-.057.511.214,1.245-.764,1.14l.065.07.747-1.232Z" transform="translate(160.049 58.926)" fill="#1a212e"/>
    <path id="Path_5931" data-name="Path 5931" d="M292.347,58.98c.45-.188.9-.376,1.349-.568l-.07-.087a1.141,1.141,0,0,1-1.358.581Z" transform="translate(36.121 139.463)" fill="#1a212e"/>
    <path id="Path_5932" data-name="Path 5932" d="M292.367,58.773l-.406.135.485-.118Z" transform="translate(35.087 140.972)" fill="#1a212e"/>
    <path id="Path_5933" data-name="Path 5933" d="M289.088,59.916l-.155-.089.179-.045Z" transform="translate(24.89 144.372)" fill="#1a212e"/>
    <path id="Path_5934" data-name="Path 5934" d="M397.636,61.77a4.424,4.424,0,0,1,.2-.467c.013-.022.157.026.245.044l-.511.371Z" transform="translate(390.758 149.471)" fill="#1a212e"/>
    <path id="Path_5935" data-name="Path 5935" d="M398.656,61.393c-.467.188-.939.371-1.406.559l.061.057,1.411-.563Z" transform="translate(389.673 149.795)" fill="#1a212e"/>
    <path id="Path_5936" data-name="Path 5936" d="M368.723,22.606l-.175-.083.249-.153Z" transform="translate(293.015 18.375)" fill="#1a212e"/>
    <path id="Path_5937" data-name="Path 5937" d="M303.184,89.459c-.087.14-.144.336-.271.4-.078.044-.258-.1-.393-.166.065-.052.131-.14.205-.153a3.9,3.9,0,0,1,.507-.026Z" transform="translate(70.648 244.315)" fill="#1a212e"/>
    <path id="Path_5938" data-name="Path 5938" d="M342.832,28.274l.323-.633.245.629.061-.052-.686,0Z" transform="translate(206.217 36.126)" fill="#1a212e"/>
    <path id="Path_5939" data-name="Path 5939" d="M298.325,107.229l-.157.061.1-.262Z" transform="translate(55.991 303.483)" fill="#1a212e"/>
    <path id="Path_5940" data-name="Path 5940" d="M336.479,30.632a4.324,4.324,0,0,1,.428-.314c.031-.017.122.07.184.1l-.681.127Z" transform="translate(184.778 45.133)" fill="#1a212e"/>
    <path id="Path_5941" data-name="Path 5941" d="M330.829,33.735l.253-.371-.319.323Z" transform="translate(165.763 55.4)" fill="#1a212e"/>
    <path id="Path_5942" data-name="Path 5942" d="M329.612,34.559l-.467-.183.031-.009c.039.087.061.205.127.249s.17-.022.262-.035Z" transform="translate(160.314 58.778)" fill="#1a212e"/>
    <path id="Path_5943" data-name="Path 5943" d="M330.168,115.3l.223-.079.052.293a.784.784,0,0,1-.227-.052C330.181,115.441,330.181,115.358,330.168,115.3Z" transform="translate(163.76 331.082)" fill="#1a212e"/>
    <path id="Path_5944" data-name="Path 5944" d="M380.3,41.212l.411-.214-.258.092-.232.074Z" transform="translate(332.333 81.109)" fill="#1a212e"/>
    <path id="Path_5945" data-name="Path 5945" d="M379.779,43.135l.542-1.188-.022-.052c-.2.393-.4.786-.594,1.179Z" transform="translate(330.589 84.13)" fill="#1a212e"/>
    <path id="Path_5946" data-name="Path 5946" d="M373.328,17.1l-.066-.19.177.021Z" transform="translate(308.888 0)" fill="#1a212e"/>
    <path id="Path_5947" data-name="Path 5947" d="M367.431,19.6l-.052-.121.013.2Z" transform="translate(289.08 8.633)" fill="#1a212e"/>
    <path id="Path_5948" data-name="Path 5948" d="M361.211,25.684l.084-.14-.138.1Z" transform="translate(268.123 29.064)" fill="#1a212e"/>
    <path id="Path_5949" data-name="Path 5949" d="M349.457,25.9l.134-.086-.207.058Z" transform="translate(228.479 29.982)" fill="#1a212e"/>
    <path id="Path_5950" data-name="Path 5950" d="M351.966,26.593l.642-.721-.1-.048-.6.664Z" transform="translate(236.978 30.007)" fill="#1a212e"/>
    <path id="Path_5951" data-name="Path 5951" d="M338.217,29.226l.165-.091-.146.069Z" transform="translate(190.869 41.156)" fill="#1a212e"/>
    <path id="Path_5952" data-name="Path 5952" d="M338.387,29.153l-.214,0,.227.227-.031-.2Z" transform="translate(190.719 41.205)" fill="#1a212e"/>
    <path id="Path_5953" data-name="Path 5953" d="M337.129,30.117l.111-.169-.12.145Z" transform="translate(187.172 43.895)" fill="#1a212e"/>
    <path id="Path_5954" data-name="Path 5954" d="M337.278,29.981l-.205.127.214-.1Z" transform="translate(187.014 44.007)" fill="#1a212e"/>
    <path id="Path_5955" data-name="Path 5955" d="M336.938,30.369l-.686.738.074.074.681-.729Z" transform="translate(184.249 45.313)" fill="#1a212e"/>
    <path id="Path_5956" data-name="Path 5956" d="M335.393,31.383l.065-.191-.128.128Z" transform="translate(181.144 48.086)" fill="#1a212e"/>
    <path id="Path_5957" data-name="Path 5957" d="M335.191,31.867l.7-.581-.061-.066-.646.629Z" transform="translate(180.646 48.183)" fill="#1a212e"/>
    <path id="Path_5958" data-name="Path 5958" d="M335.344,31.365l-.21.109.218-.092Z" transform="translate(180.484 48.668)" fill="#1a212e"/>
    <path id="Path_5959" data-name="Path 5959" d="M334.831,31.7l.144-.07h-.205Z" transform="translate(179.258 49.553)" fill="#1a212e"/>
    <path id="Path_5960" data-name="Path 5960" d="M334.669,32.484l.681-.786-.061-.07c-.223.262-.45.52-.673.782Z" transform="translate(178.739 49.553)" fill="#1a212e"/>
    <path id="Path_5961" data-name="Path 5961" d="M332.453,32.159l.154-.046-.027.144Z" transform="translate(171.456 51.186)" fill="#1a212e"/>
    <path id="Path_5962" data-name="Path 5962" d="M332.371,33.158l-.148.454c-.428-.406.061-.306.214-.389Z" transform="translate(170.1 54.706)" fill="#1a212e"/>
    <path id="Path_5963" data-name="Path 5963" d="M330.851,33.438l-.114.141.176-.091Z" transform="translate(165.677 55.647)" fill="#1a212e"/>
    <path id="Path_5964" data-name="Path 5964" d="M330.062,34.075l.13-.1-.127.09Z" transform="translate(163.401 57.452)" fill="#1a212e"/>
    <path id="Path_5965" data-name="Path 5965" d="M330.224,34.011l-.21-.022.218.236-.013-.2Z" transform="translate(163.241 57.505)" fill="#1a212e"/>
    <path id="Path_5966" data-name="Path 5966" d="M324.158,37.914l.764-.031.087-.044h-.917Z" transform="translate(143.301 70.474)" fill="#1a212e"/>
    <path id="Path_5967" data-name="Path 5967" d="M324.093,37.84l.014.177.053-.1Z" transform="translate(143.3 70.473)" fill="#1a212e"/>
    <path id="Path_5968" data-name="Path 5968" d="M377.459,39.007l-.633.629.039.048,0-.716-.074.07h.712Z" transform="translate(320.789 74.273)" fill="#1a212e"/>
    <path id="Path_5969" data-name="Path 5969" d="M380.265,41.176l-.135-.157.065.144Z" transform="translate(332.017 81.18)" fill="#1a212e"/>
    <path id="Path_5970" data-name="Path 5970" d="M317.921,41.743l-.219-.009.232.236-.035-.205Z" transform="translate(121.777 83.588)" fill="#1a212e"/>
    <path id="Path_5971" data-name="Path 5971" d="M379.863,42.069l.079-.21-.1.155Z" transform="translate(331.046 84.009)" fill="#1a212e"/>
    <path id="Path_5972" data-name="Path 5972" d="M311.657,42.177l.052.074Z" transform="translate(101.419 85.08)" fill="#1a212e"/>
    <path id="Path_5973" data-name="Path 5973" d="M378.933,46.515l.07-.253-.127.2Z" transform="translate(327.797 98.837)" fill="#1a212e"/>
    <path id="Path_5974" data-name="Path 5974" d="M297.443,53.078h-.21l.227.218-.044-.2Z" transform="translate(52.842 121.792)" fill="#1a212e"/>
    <path id="Path_5975" data-name="Path 5975" d="M389.309,57.053c.236-.245.472-.485.708-.729l-.066-.066c-.232.245-.467.485-.7.725Z" transform="translate(362.728 132.502)" fill="#1a212e"/>
    <path id="Path_5976" data-name="Path 5976" d="M291.642,81.257l-.064.219.056-.135Z" transform="translate(33.8 216.693)" fill="#1a212e"/>
    <path id="Path_5977" data-name="Path 5977" d="M295.429,86.118l-.642.594.07.079.62-.616Z" transform="translate(44.604 233.063)" fill="#1a212e"/>
    <path id="Path_5978" data-name="Path 5978" d="M295.292,86.254l-.651.546,0,.079.725-.546Z" transform="translate(44.1 233.521)" fill="#1a212e"/>
    <path id="Path_5979" data-name="Path 5979" d="M294.685,86.379l-.061.227.06-.148Z" transform="translate(44.054 233.941)" fill="#1a212e"/>
    <path id="Path_5980" data-name="Path 5980" d="M286.121,94.222l.214-.424c.341.428-.039.349-.262.376Z" transform="translate(15.258 258.928)" fill="#1a212e"/>
    <path id="Path_5981" data-name="Path 5981" d="M285.965,94.452c.2-.17.4-.345.607-.52l-.048-.048-.585.511Z" transform="translate(14.807 259.217)" fill="#1a212e"/>
    <path id="Path_5982" data-name="Path 5982" d="M286.01,94l-.093.185.118-.124Z" transform="translate(14.734 259.61)" fill="#1a212e"/>
    <path id="Path_5983" data-name="Path 5983" d="M362.7,111.042l-.7.7.1.039-.022-.756-.061.092.729.009Z" transform="translate(270.946 316.944)" fill="#1a212e"/>
    <path id="Path_5984" data-name="Path 5984" d="M317.593,119.717l-.162.122.144-.052Z" transform="translate(120.868 346.217)" fill="#1a212e"/>
    <path id="Path_5985" data-name="Path 5985" d="M311.708,42.344l.085-.2-.136.125Z" transform="translate(101.42 84.985)" fill="#1a212e"/>
    <path id="Path_5986" data-name="Path 5986" d="M351.858,27.443l-.14-.166c.114-.127.245-.24.371-.358l.214.323Z" transform="translate(236.335 33.695)" fill="#1a212e"/>
  </g>
</svg>
