<svg id="behance" xmlns="http://www.w3.org/2000/svg" width="27.435" height="17.148" viewBox="0 0 27.435 17.148">
  <g id="Group_3993" data-name="Group 3993">
    <g id="Group_3992" data-name="Group 3992">
      <path id="Path_5900" data-name="Path 5900" d="M11.287,103.73a4.115,4.115,0,0,0,1.295-.95,3.691,3.691,0,0,0,.784-2.464,4.217,4.217,0,0,0-.777-2.553q-1.3-1.739-4.4-1.783H0V112.7H7.64a11.946,11.946,0,0,0,2.4-.225,4.711,4.711,0,0,0,1.915-.84,4.638,4.638,0,0,0,1.2-1.315,4.832,4.832,0,0,0,.756-2.667,4.388,4.388,0,0,0-.66-2.45A3.811,3.811,0,0,0,11.287,103.73ZM3.38,98.884H7.07a6.506,6.506,0,0,1,2,.261,1.5,1.5,0,0,1,.911,1.547,1.575,1.575,0,0,1-.689,1.468,3.459,3.459,0,0,1-1.794.415H3.38Zm5.836,10.623A4.042,4.042,0,0,1,7.5,109.8H3.38v-4.46H7.554a4.356,4.356,0,0,1,1.7.281,1.793,1.793,0,0,1,1.079,1.8A2.1,2.1,0,0,1,9.215,109.507Z" transform="translate(0 -95.979)" fill="#e2e2e2"/>
      <rect id="Rectangle_2220" data-name="Rectangle 2220" width="7.266" height="2.082" transform="translate(17.532 0.78)" fill="#e2e2e2"/>
      <path id="Path_5901" data-name="Path 5901" d="M292.2,176.145a5.967,5.967,0,0,0-1-2.557,5.048,5.048,0,0,0-2.164-1.83,7.164,7.164,0,0,0-2.949-.58,6.1,6.1,0,0,0-4.483,1.715,6.653,6.653,0,0,0-1.727,4.932q0,3.429,1.915,4.951A6.881,6.881,0,0,0,286.2,184.3a6.146,6.146,0,0,0,4.717-1.8,4.058,4.058,0,0,0,1.214-2.236h-3.347a2.7,2.7,0,0,1-.676.851,2.8,2.8,0,0,1-1.818.566,3.36,3.36,0,0,1-1.809-.466,2.954,2.954,0,0,1-1.314-2.608h9.135A15.736,15.736,0,0,0,292.2,176.145Zm-8.943.321a3.352,3.352,0,0,1,.875-1.914,2.636,2.636,0,0,1,1.957-.708,2.911,2.911,0,0,1,1.946.665,2.7,2.7,0,0,1,.873,1.957Z" transform="translate(-264.874 -167.149)" fill="#e2e2e2"/>
    </g>
  </g>
</svg>
