<svg xmlns="http://www.w3.org/2000/svg" width="17.791" height="17.791" viewBox="0 0 17.791 17.791">
  <g id="instagram_2_" data-name="instagram (2)" transform="translate(0 0)">
    <g id="Group_3995" data-name="Group 3995" transform="translate(0 0)">
      <g id="Group_3994" data-name="Group 3994">
        <path id="Path_5902" data-name="Path 5902" d="M12.231,0H5.56A5.56,5.56,0,0,0,0,5.56v6.672a5.56,5.56,0,0,0,5.56,5.56h6.672a5.56,5.56,0,0,0,5.56-5.56V5.56A5.56,5.56,0,0,0,12.231,0Zm3.892,12.231a3.9,3.9,0,0,1-3.892,3.892H5.56a3.9,3.9,0,0,1-3.892-3.892V5.56A3.9,3.9,0,0,1,5.56,1.668h6.672A3.9,3.9,0,0,1,16.123,5.56Z" fill="#e2e2e2"/>
      </g>
    </g>
    <g id="Group_3997" data-name="Group 3997" transform="translate(4.448 4.448)">
      <g id="Group_3996" data-name="Group 3996">
        <path id="Path_5903" data-name="Path 5903" d="M132.448,128a4.448,4.448,0,1,0,4.448,4.448A4.448,4.448,0,0,0,132.448,128Zm0,7.228a2.78,2.78,0,1,1,2.78-2.78A2.784,2.784,0,0,1,132.448,135.228Z" transform="translate(-128 -128)" fill="#e2e2e2"/>
      </g>
    </g>
    <g id="Group_3999" data-name="Group 3999" transform="translate(13.084 3.522)">
      <g id="Group_3998" data-name="Group 3998">
        <ellipse id="Ellipse_1" data-name="Ellipse 1" cx="0.593" cy="0.593" rx="0.593" ry="0.593" fill="#e2e2e2"/>
      </g>
    </g>
  </g>
</svg>
