<svg xmlns="http://www.w3.org/2000/svg" width="54.445" height="51.645" viewBox="0 0 54.445 51.645">
  <g id="ui-design" transform="translate(1 1)">
    <path id="Path_5907" data-name="Path 5907" d="M50.908,13.668H1.536A1.537,1.537,0,0,0,0,15.2V53.9a1.537,1.537,0,0,0,1.536,1.536H20.242v4.8H19.8a1.536,1.536,0,1,0,0,3.073H32.646a1.536,1.536,0,1,0,0-3.073H32.2v-4.8H50.908A1.537,1.537,0,0,0,52.445,53.9V15.2A1.537,1.537,0,0,0,50.908,13.668ZM3.073,16.741h46.3V44.37H3.073Zm26.058,43.5H23.314v-4.8H29.13v4.8Zm20.242-7.874H3.073V47.443h46.3Z" transform="translate(0 -13.668)" fill="#ffda63" stroke="#1d212b" stroke-width="2"/>
    <path id="Path_5908" data-name="Path 5908" d="M317.339,106.539a1.537,1.537,0,0,0-1.536,1.536v11.676a1.536,1.536,0,1,0,3.073,0V108.075A1.537,1.537,0,0,0,317.339,106.539Z" transform="translate(-283.455 -97.026)" fill="#ffda63" stroke="#1d212b" stroke-width="2"/>
    <path id="Path_5909" data-name="Path 5909" d="M175.847,106.539a1.537,1.537,0,0,0-1.536,1.536V116.1c0,.537-.154,1.232-1.355,1.837a2.673,2.673,0,0,1-1.231.277h0a2.4,2.4,0,0,1-1.327-.374,1.9,1.9,0,0,1-1.123-1.731v-8.035a1.536,1.536,0,0,0-3.073,0v8.035a4.951,4.951,0,0,0,2.541,4.321,5.454,5.454,0,0,0,2.977.857h.008a5.753,5.753,0,0,0,2.614-.606,4.947,4.947,0,0,0,3.046-4.581v-8.026a1.537,1.537,0,0,0-1.536-1.537Z" transform="translate(-149.173 -97.026)" fill="#ffda63" stroke="#1d212b" stroke-width="2"/>
  </g>
</svg>
