<svg xmlns="http://www.w3.org/2000/svg" width="17.791" height="17.791" viewBox="0 0 17.791 17.791">
  <g id="whatsapp" transform="translate(0 0)">
    <g id="Group_4000" data-name="Group 4000" transform="translate(0 0)">
      <path id="Path_5904" data-name="Path 5904" d="M8.9,0h0a8.89,8.89,0,0,0-7.2,14.11l-1.109,3.3L4,16.321A8.894,8.894,0,1,0,8.9,0Zm5.176,12.562a2.51,2.51,0,0,1-1.746,1.255c-.465.1-1.072.178-3.116-.669A11.144,11.144,0,0,1,4.784,9.236,5.081,5.081,0,0,1,3.727,6.553a2.84,2.84,0,0,1,.91-2.165,1.292,1.292,0,0,1,.91-.319c.11,0,.209.006.3.01.261.011.393.027.565.439.215.517.737,1.794.8,1.925a.529.529,0,0,1,.038.481,1.537,1.537,0,0,1-.288.408c-.131.151-.256.267-.387.429-.12.141-.256.292-.1.554A7.9,7.9,0,0,0,7.91,10.109,6.54,6.54,0,0,0,10,11.4a.562.562,0,0,0,.627-.1,10.763,10.763,0,0,0,.695-.921.5.5,0,0,1,.638-.193c.24.083,1.511.712,1.772.842s.434.193.5.3A2.215,2.215,0,0,1,14.074,12.562Z" fill="#e2e2e2"/>
    </g>
  </g>
</svg>
